<svg xmlns="http://www.w3.org/2000/svg" xmlns:xlink="http://www.w3.org/1999/xlink" width="1580" zoomAndPan="magnify" viewBox="0 0 1185 809.999993" height="1080" preserveAspectRatio="xMidYMid meet" version="1.0"><defs><g/><clipPath id="caa469f927"><path d="M -60.355469 -217.550781 L 1211.988281 -217.550781 C 1229.15625 -217.550781 1245.625 -210.730469 1257.765625 -198.589844 C 1269.90625 -186.449219 1276.726562 -169.984375 1276.726562 -152.8125 L 1276.726562 990.210938 C 1276.726562 1007.382812 1269.90625 1023.847656 1257.765625 1035.988281 C 1245.625 1048.128906 1229.15625 1054.949219 1211.988281 1054.949219 L -60.355469 1054.949219 C -77.523438 1054.949219 -93.988281 1048.128906 -106.128906 1035.988281 C -118.269531 1023.847656 -125.089844 1007.382812 -125.089844 990.210938 L -125.089844 -152.8125 C -125.089844 -169.984375 -118.269531 -186.449219 -106.128906 -198.589844 C -93.988281 -210.730469 -77.523438 -217.550781 -60.355469 -217.550781 Z M -60.355469 -217.550781 " clip-rule="nonzero"/></clipPath><clipPath id="3e89c4eea6"><path d="M 65.652344 39.132812 L 1120 39.132812 L 1120 770.867188 L 65.652344 770.867188 Z M 65.652344 39.132812 " clip-rule="nonzero"/></clipPath><clipPath id="e5cfde3ef0"><path d="M 111.386719 39.132812 L 1073.613281 39.132812 C 1098.871094 39.132812 1119.347656 59.609375 1119.347656 84.867188 L 1119.347656 725.132812 C 1119.347656 750.390625 1098.871094 770.867188 1073.613281 770.867188 L 111.386719 770.867188 C 86.128906 770.867188 65.652344 750.390625 65.652344 725.132812 L 65.652344 84.867188 C 65.652344 59.609375 86.128906 39.132812 111.386719 39.132812 Z M 111.386719 39.132812 " clip-rule="nonzero"/></clipPath><clipPath id="f71b10388d"><path d="M 322.660156 658.546875 L 557.179688 658.546875 L 557.179688 681.375 L 322.660156 681.375 Z M 322.660156 658.546875 " clip-rule="nonzero"/></clipPath><clipPath id="8fe83a9f3d"><path d="M 331.1875 658.546875 L 548.578125 658.546875 C 553.289062 658.546875 557.105469 662.363281 557.105469 667.074219 L 557.105469 672.847656 C 557.105469 677.554688 553.289062 681.375 548.578125 681.375 L 331.1875 681.375 C 326.476562 681.375 322.660156 677.554688 322.660156 672.847656 L 322.660156 667.074219 C 322.660156 662.363281 326.476562 658.546875 331.1875 658.546875 Z M 331.1875 658.546875 " clip-rule="nonzero"/></clipPath><clipPath id="b578db4e0b"><path d="M 333.6875 220.222656 L 840 220.222656 L 840 302.242188 L 333.6875 302.242188 Z M 333.6875 220.222656 " clip-rule="nonzero"/></clipPath><clipPath id="efc82488d1"><path d="M 579.917969 658.546875 L 840 658.546875 L 840 681.378906 L 579.917969 681.378906 Z M 579.917969 658.546875 " clip-rule="nonzero"/></clipPath><clipPath id="f9b663c09f"><path d="M 588.445312 658.546875 L 831.476562 658.546875 C 836.183594 658.546875 840 662.363281 840 667.074219 L 840 672.851562 C 840 677.558594 836.183594 681.378906 831.476562 681.378906 L 588.445312 681.378906 C 583.734375 681.378906 579.917969 677.558594 579.917969 672.851562 L 579.917969 667.074219 C 579.917969 662.363281 583.734375 658.546875 588.445312 658.546875 Z M 588.445312 658.546875 " clip-rule="nonzero"/></clipPath><clipPath id="9599e34563"><path d="M 666 376 L 779.820312 376 L 779.820312 503 L 666 503 Z M 666 376 " clip-rule="nonzero"/></clipPath><clipPath id="353ca7b766"><path d="M 690 473 L 750 473 L 750 531.644531 L 690 531.644531 Z M 690 473 " clip-rule="nonzero"/></clipPath><clipPath id="abc8ee3574"><path d="M 481 473 L 540 473 L 540 531.644531 L 481 531.644531 Z M 481 473 " clip-rule="nonzero"/></clipPath><clipPath id="cd02047883"><path d="M 372 335.144531 L 670 335.144531 L 670 503 L 372 503 Z M 372 335.144531 " clip-rule="nonzero"/></clipPath></defs><rect x="-118.5" width="1422" fill="#ffffff" y="-80.999999" height="971.999992" fill-opacity="1"/><rect x="-118.5" width="1422" fill="#ffffff" y="-80.999999" height="971.999992" fill-opacity="1"/><g clip-path="url(#caa469f927)"><rect x="-118.5" width="1422" fill="#294d2c" y="-80.999999" height="971.999992" fill-opacity="1"/></g><g clip-path="url(#3e89c4eea6)"><g clip-path="url(#e5cfde3ef0)"><path fill="#fefacb" d="M 65.652344 39.132812 L 1120.378906 39.132812 L 1120.378906 770.867188 L 65.652344 770.867188 Z M 65.652344 39.132812 " fill-opacity="1" fill-rule="nonzero"/></g></g><g clip-path="url(#f71b10388d)"><g clip-path="url(#8fe83a9f3d)"><path fill="#294d2c" d="M 322.660156 658.546875 L 557.089844 658.546875 L 557.089844 681.375 L 322.660156 681.375 Z M 322.660156 658.546875 " fill-opacity="1" fill-rule="nonzero"/></g></g><g clip-path="url(#b578db4e0b)"><path fill="#294d2c" d="M 333.6875 220.222656 L 839.898438 220.222656 L 839.898438 302.242188 L 333.6875 302.242188 Z M 333.6875 220.222656 " fill-opacity="1" fill-rule="nonzero"/></g><g clip-path="url(#efc82488d1)"><g clip-path="url(#f9b663c09f)"><path fill="#294d2c" d="M 579.917969 658.546875 L 839.976562 658.546875 L 839.976562 681.378906 L 579.917969 681.378906 Z M 579.917969 658.546875 " fill-opacity="1" fill-rule="nonzero"/></g></g><g clip-path="url(#9599e34563)"><path fill="#294d2c" d="M 772.84375 412.914062 L 745.398438 383.355469 C 741.574219 379.203125 736.117188 376.921875 730.335938 376.921875 L 675.285156 376.921875 L 666.246094 502.328125 L 683.347656 502.328125 C 684.8125 481.96875 702.484375 465.441406 722.84375 465.441406 C 743.203125 465.441406 758.511719 481.96875 757.046875 502.328125 L 763.722656 502.328125 C 769.503906 502.328125 774.472656 497.6875 774.960938 491.90625 L 779.359375 431.644531 C 779.683594 424.558594 777.402344 417.882812 772.84375 412.914062 Z M 682.695312 420.40625 L 685.058594 387.507812 L 729.601562 387.507812 C 732.617188 387.507812 735.382812 388.730469 737.417969 390.847656 L 764.863281 420.40625 Z M 682.695312 420.40625 " fill-opacity="1" fill-rule="nonzero"/></g><g clip-path="url(#353ca7b766)"><path fill="#294d2c" d="M 722.273438 473.011719 C 706.148438 473.011719 692.0625 486.125 690.921875 502.246094 C 689.78125 518.371094 701.914062 531.480469 718.039062 531.480469 C 734.164062 531.480469 748.25 518.371094 749.390625 502.246094 C 750.53125 486.125 738.398438 473.011719 722.273438 473.011719 Z M 735.222656 502.328125 C 734.652344 510.714844 727.320312 517.476562 719.015625 517.476562 C 710.710938 517.476562 704.359375 510.714844 705.007812 502.328125 C 705.578125 493.941406 712.910156 487.183594 721.214844 487.183594 C 729.601562 487.183594 735.871094 493.941406 735.222656 502.328125 Z M 735.222656 502.328125 " fill-opacity="1" fill-rule="nonzero"/></g><g clip-path="url(#abc8ee3574)"><path fill="#294d2c" d="M 512.746094 473.011719 C 496.621094 473.011719 482.535156 486.125 481.394531 502.246094 C 480.253906 518.371094 492.386719 531.480469 508.511719 531.480469 C 524.632812 531.480469 538.722656 518.371094 539.863281 502.246094 C 541.082031 486.125 528.949219 473.011719 512.746094 473.011719 Z M 525.773438 502.328125 C 525.203125 510.714844 517.875 517.476562 509.570312 517.476562 C 501.179688 517.476562 494.910156 510.714844 495.5625 502.328125 C 496.132812 493.941406 503.460938 487.183594 511.769531 487.183594 C 520.074219 487.183594 526.34375 493.941406 525.773438 502.328125 Z M 525.773438 502.328125 " fill-opacity="1" fill-rule="nonzero"/></g><path fill="#294d2c" d="M 535.871094 392.882812 L 530.417969 392.882812 L 529.4375 406.5625 L 534.730469 406.5625 C 536.605469 406.5625 537.988281 405.910156 539.046875 404.691406 C 540.023438 403.46875 540.675781 401.839844 540.757812 399.722656 C 541.164062 395.164062 539.535156 392.882812 535.871094 392.882812 Z M 535.871094 392.882812 " fill-opacity="1" fill-rule="nonzero"/><g clip-path="url(#cd02047883)"><path fill="#294d2c" d="M 660.222656 335.144531 L 453.707031 335.144531 C 447.925781 335.144531 442.957031 339.789062 442.46875 345.570312 L 433.835938 464.625 L 398.414062 464.625 C 396.296875 464.625 394.503906 466.335938 394.339844 468.453125 C 394.179688 470.570312 395.726562 472.28125 397.84375 472.28125 L 443.769531 472.28125 C 443.933594 472.28125 444.097656 472.28125 444.339844 472.28125 C 446.132812 472.523438 447.4375 474.152344 447.355469 476.027344 C 447.191406 477.980469 445.644531 479.527344 443.851562 479.773438 C 443.691406 479.773438 443.527344 479.773438 443.28125 479.773438 L 376.179688 479.773438 C 374.0625 479.773438 372.273438 481.480469 372.109375 483.597656 C 371.945312 485.714844 373.492188 487.425781 375.609375 487.425781 L 442.632812 487.425781 C 442.875 487.425781 443.121094 487.425781 443.363281 487.34375 L 453.21875 487.34375 C 455.335938 487.34375 456.882812 489.054688 456.71875 491.171875 C 456.554688 493.289062 454.765625 495 452.648438 495 L 442.875 495 C 442.632812 494.917969 442.386719 494.917969 442.140625 494.917969 L 412.09375 494.917969 C 409.976562 494.917969 408.183594 496.628906 408.023438 498.746094 C 407.859375 500.863281 409.40625 502.574219 411.523438 502.574219 L 473.738281 502.574219 C 475.203125 482.214844 492.875 465.683594 513.234375 465.683594 C 533.59375 465.683594 548.902344 482.214844 547.4375 502.574219 L 658.511719 502.574219 L 669.832031 345.894531 C 670.320312 339.789062 666.003906 335.144531 660.222656 335.144531 Z M 515.839844 392.882812 L 499.632812 392.882812 L 498.820312 404.691406 L 513.234375 404.691406 L 512.664062 412.425781 L 498.25 412.425781 L 496.867188 431.238281 L 487.582031 431.238281 L 490.921875 385.226562 L 516.410156 385.226562 Z M 550.125 399.070312 C 549.714844 405.179688 547.109375 409.496094 542.550781 411.9375 L 549.226562 430.75 L 549.226562 431.15625 L 539.210938 431.15625 L 533.511719 414.300781 L 528.867188 414.300781 L 527.648438 431.15625 L 518.363281 431.15625 L 521.703125 385.144531 L 536.523438 385.144531 C 541.164062 385.144531 544.667969 386.367188 547.027344 388.730469 C 549.472656 391.171875 550.449219 394.59375 550.125 399.070312 Z M 583.347656 392.882812 L 566.246094 392.882812 L 565.433594 403.792969 L 579.925781 403.792969 L 579.359375 411.285156 L 564.863281 411.285156 L 563.964844 423.5 L 581.066406 423.5 L 580.496094 431.238281 L 554.03125 431.238281 L 557.371094 385.226562 L 583.753906 385.226562 Z M 615.105469 392.882812 L 598.007812 392.882812 L 597.191406 403.792969 L 611.6875 403.792969 L 611.117188 411.285156 L 596.621094 411.285156 L 595.726562 423.5 L 612.828125 423.5 L 612.257812 431.238281 L 585.789062 431.238281 L 589.128906 385.226562 L 615.515625 385.226562 Z M 615.105469 392.882812 " fill-opacity="1" fill-rule="nonzero"/></g><g fill="#294d2c" fill-opacity="1"><g transform="translate(333.829793, 183.02439)"><g><path d="M 7.5 -74.984375 L 35.890625 -74.984375 C 41.671875 -74.984375 46.613281 -74.394531 50.71875 -73.21875 C 54.832031 -72.039062 58.207031 -70.328125 60.84375 -68.078125 C 63.488281 -65.828125 65.4375 -63.078125 66.6875 -59.828125 C 67.9375 -56.578125 68.5625 -52.878906 68.5625 -48.734375 C 68.5625 -44.597656 67.9375 -40.90625 66.6875 -37.65625 C 65.4375 -34.40625 63.488281 -31.65625 60.84375 -29.40625 C 58.207031 -27.15625 54.832031 -25.441406 50.71875 -24.265625 C 46.613281 -23.085938 41.671875 -22.5 35.890625 -22.5 L 26.78125 -22.5 L 26.78125 0 L 7.5 0 Z M 36.421875 -39.640625 C 40.492188 -39.640625 43.472656 -40.476562 45.359375 -42.15625 C 47.253906 -43.832031 48.203125 -46.023438 48.203125 -48.734375 C 48.203125 -51.453125 47.253906 -53.648438 45.359375 -55.328125 C 43.472656 -57.003906 40.492188 -57.84375 36.421875 -57.84375 L 26.78125 -57.84375 L 26.78125 -39.640625 Z M 36.421875 -39.640625 "/></g></g></g><g fill="#294d2c" fill-opacity="1"><g transform="translate(399.595839, 183.02439)"><g><path d="M 9.109375 -36.953125 C 9.109375 -40.171875 7.5 -41.78125 4.28125 -41.78125 L 2.671875 -41.78125 L 2.671875 -56.234375 C 3.535156 -56.453125 4.46875 -56.703125 5.46875 -56.984375 C 6.320312 -57.203125 7.285156 -57.398438 8.359375 -57.578125 C 9.429688 -57.753906 10.570312 -57.84375 11.78125 -57.84375 C 14.570312 -57.84375 16.785156 -57.34375 18.421875 -56.34375 C 20.066406 -55.34375 21.316406 -54.238281 22.171875 -53.03125 C 23.171875 -51.601562 23.816406 -49.992188 24.109375 -48.203125 L 25.171875 -48.203125 C 26.023438 -49.992188 27.203125 -51.601562 28.703125 -53.03125 C 29.992188 -54.238281 31.726562 -55.34375 33.90625 -56.34375 C 36.082031 -57.34375 38.882812 -57.84375 42.3125 -57.84375 L 46.59375 -57.84375 L 46.59375 -40.171875 L 39.09375 -40.171875 C 35.3125 -40.171875 32.398438 -38.992188 30.359375 -36.640625 C 28.328125 -34.285156 27.3125 -30.859375 27.3125 -26.359375 L 27.3125 0 L 9.109375 0 Z M 9.109375 -36.953125 "/></g></g></g><g fill="#294d2c" fill-opacity="1"><g transform="translate(440.725936, 183.02439)"><g><path d="M 33.75 1.609375 C 29.175781 1.609375 25.066406 0.929688 21.421875 -0.421875 C 17.785156 -1.785156 14.695312 -3.75 12.15625 -6.3125 C 9.625 -8.882812 7.675781 -12.023438 6.3125 -15.734375 C 4.957031 -19.453125 4.28125 -23.671875 4.28125 -28.390625 C 4.28125 -33.097656 4.957031 -37.304688 6.3125 -41.015625 C 7.675781 -44.734375 9.625 -47.878906 12.15625 -50.453125 C 14.695312 -53.023438 17.785156 -54.988281 21.421875 -56.34375 C 25.066406 -57.707031 29.175781 -58.390625 33.75 -58.390625 C 38.3125 -58.390625 42.414062 -57.707031 46.0625 -56.34375 C 49.707031 -54.988281 52.796875 -53.023438 55.328125 -50.453125 C 57.867188 -47.878906 59.816406 -44.734375 61.171875 -41.015625 C 62.523438 -37.304688 63.203125 -33.097656 63.203125 -28.390625 C 63.203125 -23.671875 62.523438 -19.453125 61.171875 -15.734375 C 59.816406 -12.023438 57.867188 -8.882812 55.328125 -6.3125 C 52.796875 -3.75 49.707031 -1.785156 46.0625 -0.421875 C 42.414062 0.929688 38.3125 1.609375 33.75 1.609375 Z M 33.75 -14.46875 C 36.75 -14.46875 39.191406 -15.570312 41.078125 -17.78125 C 42.972656 -20 43.921875 -23.535156 43.921875 -28.390625 C 43.921875 -33.242188 42.972656 -36.773438 41.078125 -38.984375 C 39.191406 -41.203125 36.75 -42.3125 33.75 -42.3125 C 30.75 -42.3125 28.300781 -41.203125 26.40625 -38.984375 C 24.507812 -36.773438 23.5625 -33.242188 23.5625 -28.390625 C 23.5625 -23.535156 24.507812 -20 26.40625 -17.78125 C 28.300781 -15.570312 30.75 -14.46875 33.75 -14.46875 Z M 33.75 -14.46875 "/></g></g></g><g fill="#294d2c" fill-opacity="1"><g transform="translate(501.6719, 183.02439)"><g><path d="M 9.109375 -37.5 C 9.109375 -40.707031 7.5 -42.3125 4.28125 -42.3125 L 2.671875 -42.3125 L 2.671875 -56.78125 C 3.535156 -56.988281 4.46875 -57.238281 5.46875 -57.53125 C 6.320312 -57.738281 7.285156 -57.929688 8.359375 -58.109375 C 9.429688 -58.296875 10.570312 -58.390625 11.78125 -58.390625 C 14.570312 -58.390625 16.785156 -57.890625 18.421875 -56.890625 C 20.066406 -55.890625 21.316406 -54.78125 22.171875 -53.5625 C 23.171875 -52.132812 23.816406 -50.523438 24.109375 -48.734375 L 25.171875 -48.734375 C 25.960938 -50.523438 27.070312 -52.132812 28.5 -53.5625 C 29.707031 -54.78125 31.289062 -55.890625 33.25 -56.890625 C 35.21875 -57.890625 37.703125 -58.390625 40.703125 -58.390625 C 43.703125 -58.390625 46.148438 -57.890625 48.046875 -56.890625 C 49.941406 -55.890625 51.457031 -54.78125 52.59375 -53.5625 C 53.882812 -52.132812 54.921875 -50.523438 55.703125 -48.734375 L 56.78125 -48.734375 C 57.632812 -50.523438 58.773438 -52.132812 60.203125 -53.5625 C 61.421875 -54.78125 63.046875 -55.890625 65.078125 -56.890625 C 67.109375 -57.890625 69.695312 -58.390625 72.84375 -58.390625 C 75.488281 -58.390625 77.96875 -57.90625 80.28125 -56.9375 C 82.601562 -55.96875 84.585938 -54.554688 86.234375 -52.703125 C 87.878906 -50.847656 89.179688 -48.597656 90.140625 -45.953125 C 91.109375 -43.316406 91.59375 -40.316406 91.59375 -36.953125 L 91.59375 0 L 73.375 0 L 73.375 -35.34375 C 73.375 -39.988281 71.410156 -42.3125 67.484375 -42.3125 C 66.554688 -42.3125 65.609375 -42.039062 64.640625 -41.5 C 63.679688 -40.96875 62.828125 -40.148438 62.078125 -39.046875 C 61.328125 -37.941406 60.703125 -36.550781 60.203125 -34.875 C 59.703125 -33.195312 59.453125 -31.210938 59.453125 -28.921875 L 59.453125 0 L 41.25 0 L 41.25 -35.34375 C 41.25 -39.988281 39.28125 -42.3125 35.34375 -42.3125 C 34.414062 -42.3125 33.46875 -42.039062 32.5 -41.5 C 31.539062 -40.96875 30.6875 -40.148438 29.9375 -39.046875 C 29.1875 -37.941406 28.5625 -36.550781 28.0625 -34.875 C 27.5625 -33.195312 27.3125 -31.210938 27.3125 -28.921875 L 27.3125 0 L 9.109375 0 Z M 9.109375 -37.5 "/></g></g></g><g fill="#294d2c" fill-opacity="1"><g transform="translate(594.216142, 183.02439)"><g><path d="M 33.75 1.609375 C 29.175781 1.609375 25.066406 0.929688 21.421875 -0.421875 C 17.785156 -1.785156 14.695312 -3.75 12.15625 -6.3125 C 9.625 -8.882812 7.675781 -12.023438 6.3125 -15.734375 C 4.957031 -19.453125 4.28125 -23.671875 4.28125 -28.390625 C 4.28125 -33.097656 4.957031 -37.304688 6.3125 -41.015625 C 7.675781 -44.734375 9.625 -47.878906 12.15625 -50.453125 C 14.695312 -53.023438 17.785156 -54.988281 21.421875 -56.34375 C 25.066406 -57.707031 29.175781 -58.390625 33.75 -58.390625 C 38.3125 -58.390625 42.414062 -57.707031 46.0625 -56.34375 C 49.707031 -54.988281 52.796875 -53.023438 55.328125 -50.453125 C 57.867188 -47.878906 59.816406 -44.734375 61.171875 -41.015625 C 62.523438 -37.304688 63.203125 -33.097656 63.203125 -28.390625 C 63.203125 -23.671875 62.523438 -19.453125 61.171875 -15.734375 C 59.816406 -12.023438 57.867188 -8.882812 55.328125 -6.3125 C 52.796875 -3.75 49.707031 -1.785156 46.0625 -0.421875 C 42.414062 0.929688 38.3125 1.609375 33.75 1.609375 Z M 33.75 -14.46875 C 36.75 -14.46875 39.191406 -15.570312 41.078125 -17.78125 C 42.972656 -20 43.921875 -23.535156 43.921875 -28.390625 C 43.921875 -33.242188 42.972656 -36.773438 41.078125 -38.984375 C 39.191406 -41.203125 36.75 -42.3125 33.75 -42.3125 C 30.75 -42.3125 28.300781 -41.203125 26.40625 -38.984375 C 24.507812 -36.773438 23.5625 -33.242188 23.5625 -28.390625 C 23.5625 -23.535156 24.507812 -20 26.40625 -17.78125 C 28.300781 -15.570312 30.75 -14.46875 33.75 -14.46875 Z M 33.75 -14.46875 "/></g></g></g><g fill="#294d2c" fill-opacity="1"><g transform="translate(655.162098, 183.02439)"><g><path d="M 32.140625 31.0625 C 30.347656 31.0625 28.738281 30.953125 27.3125 30.734375 C 25.882812 30.523438 24.671875 30.28125 23.671875 30 C 22.460938 29.707031 21.359375 29.347656 20.359375 28.921875 L 23.5625 20.359375 C 24.132812 20.640625 24.78125 20.921875 25.5 21.203125 C 26.851562 21.703125 28.351562 21.953125 30 21.953125 C 33.207031 21.953125 34.8125 20.523438 34.8125 17.671875 C 34.8125 16.597656 34.222656 15.613281 33.046875 14.71875 C 31.867188 13.832031 29.78125 13.390625 26.78125 13.390625 L 24.109375 13.390625 L 27.53125 1.171875 C 20.25 0.0351562 14.550781 -3.082031 10.4375 -8.1875 C 6.332031 -13.300781 4.28125 -20.035156 4.28125 -28.390625 C 4.28125 -33.097656 4.957031 -37.304688 6.3125 -41.015625 C 7.675781 -44.734375 9.625 -47.878906 12.15625 -50.453125 C 14.695312 -53.023438 17.785156 -54.988281 21.421875 -56.34375 C 25.066406 -57.707031 29.175781 -58.390625 33.75 -58.390625 C 37.601562 -58.390625 41.0625 -57.851562 44.125 -56.78125 C 47.195312 -55.707031 49.785156 -54.257812 51.890625 -52.4375 C 54.003906 -50.613281 55.613281 -48.453125 56.71875 -45.953125 C 57.832031 -43.453125 58.390625 -40.8125 58.390625 -38.03125 C 58.390625 -37.03125 58.332031 -36.15625 58.21875 -35.40625 C 58.113281 -34.65625 57.988281 -33.992188 57.84375 -33.421875 C 57.632812 -32.710938 57.457031 -32.109375 57.3125 -31.609375 L 39.640625 -31.609375 C 39.710938 -31.960938 39.78125 -32.316406 39.84375 -32.671875 C 39.914062 -33.023438 39.988281 -33.414062 40.0625 -33.84375 C 40.132812 -34.28125 40.171875 -34.78125 40.171875 -35.34375 C 40.171875 -37.488281 39.546875 -39.1875 38.296875 -40.4375 C 37.046875 -41.6875 35.347656 -42.3125 33.203125 -42.3125 C 30.203125 -42.3125 27.84375 -41.289062 26.125 -39.25 C 24.414062 -37.21875 23.5625 -33.773438 23.5625 -28.921875 C 23.5625 -23.773438 24.578125 -20.078125 26.609375 -17.828125 C 28.648438 -15.585938 31.5625 -14.46875 35.34375 -14.46875 C 37.632812 -14.46875 39.597656 -14.75 41.234375 -15.3125 C 42.878906 -15.882812 44.273438 -16.566406 45.421875 -17.359375 C 46.703125 -18.210938 47.804688 -19.210938 48.734375 -20.359375 L 57.84375 -8.03125 C 56.488281 -6.457031 54.8125 -5.03125 52.8125 -3.75 C 51.09375 -2.601562 48.929688 -1.546875 46.328125 -0.578125 C 43.722656 0.378906 40.632812 1.035156 37.0625 1.390625 L 35.34375 6.96875 C 37.488281 7.394531 39.457031 8.109375 41.25 9.109375 C 42.675781 9.960938 44.015625 11.191406 45.265625 12.796875 C 46.515625 14.410156 47.140625 16.570312 47.140625 19.28125 C 47.140625 22.5 45.851562 25.265625 43.28125 27.578125 C 40.707031 29.898438 36.992188 31.0625 32.140625 31.0625 Z M 32.140625 31.0625 "/></g></g></g><g fill="#294d2c" fill-opacity="1"><g transform="translate(710.216866, 183.02439)"><g><path d="M 21.421875 1.609375 C 18.710938 1.609375 16.25 1.160156 14.03125 0.265625 C 11.820312 -0.628906 9.910156 -1.84375 8.296875 -3.375 C 6.691406 -4.90625 5.441406 -6.707031 4.546875 -8.78125 C 3.660156 -10.851562 3.21875 -13.101562 3.21875 -15.53125 C 3.21875 -18.101562 3.695312 -20.492188 4.65625 -22.703125 C 5.625 -24.921875 7.035156 -26.847656 8.890625 -28.484375 C 10.742188 -30.128906 12.992188 -31.414062 15.640625 -32.34375 C 18.285156 -33.28125 21.285156 -33.75 24.640625 -33.75 L 36.421875 -33.75 L 36.421875 -35.34375 C 36.421875 -37.78125 35.8125 -39.640625 34.59375 -40.921875 C 33.382812 -42.203125 31.851562 -42.84375 30 -42.84375 C 27.851562 -42.84375 26.242188 -42.359375 25.171875 -41.390625 C 24.097656 -40.429688 23.5625 -39.132812 23.5625 -37.5 L 23.5625 -36.421875 L 7.5 -36.421875 C 7.28125 -36.847656 7.101562 -37.3125 6.96875 -37.8125 C 6.601562 -38.738281 6.421875 -39.882812 6.421875 -41.25 C 6.421875 -43.382812 6.9375 -45.46875 7.96875 -47.5 C 9.007812 -49.539062 10.546875 -51.363281 12.578125 -52.96875 C 14.617188 -54.582031 17.082031 -55.890625 19.96875 -56.890625 C 22.863281 -57.890625 26.207031 -58.390625 30 -58.390625 C 33.707031 -58.390625 37.078125 -57.816406 40.109375 -56.671875 C 43.148438 -55.523438 45.738281 -53.953125 47.875 -51.953125 C 50.019531 -49.953125 51.679688 -47.578125 52.859375 -44.828125 C 54.046875 -42.078125 54.640625 -39.097656 54.640625 -35.890625 L 54.640625 -19.28125 C 54.640625 -16.070312 56.242188 -14.46875 59.453125 -14.46875 L 61.0625 -14.46875 L 61.0625 0 C 60.207031 0.28125 59.28125 0.566406 58.28125 0.859375 C 57.414062 1.066406 56.445312 1.242188 55.375 1.390625 C 54.3125 1.535156 53.171875 1.609375 51.953125 1.609375 C 49.097656 1.609375 46.863281 1.109375 45.25 0.109375 C 43.644531 -0.890625 42.414062 -2 41.5625 -3.21875 C 40.5625 -4.570312 39.921875 -6.175781 39.640625 -8.03125 L 38.5625 -8.03125 C 37.632812 -6.175781 36.382812 -4.570312 34.8125 -3.21875 C 33.457031 -2 31.691406 -0.890625 29.515625 0.109375 C 27.335938 1.109375 24.640625 1.609375 21.421875 1.609375 Z M 26.78125 -13.390625 C 29.207031 -13.390625 31.273438 -14.175781 32.984375 -15.75 C 34.703125 -17.320312 35.847656 -19.035156 36.421875 -20.890625 L 26.78125 -20.890625 C 24.925781 -20.890625 23.566406 -20.53125 22.703125 -19.8125 C 21.847656 -19.101562 21.421875 -18.210938 21.421875 -17.140625 C 21.421875 -16.066406 21.847656 -15.171875 22.703125 -14.453125 C 23.566406 -13.742188 24.925781 -13.390625 26.78125 -13.390625 Z M 39.640625 -64.28125 C 37.210938 -64.28125 35.210938 -64.617188 33.640625 -65.296875 C 32.066406 -65.972656 30.722656 -66.703125 29.609375 -67.484375 C 28.503906 -68.273438 27.539062 -69.007812 26.71875 -69.6875 C 25.90625 -70.363281 25.035156 -70.703125 24.109375 -70.703125 C 23.035156 -70.703125 22.140625 -70.328125 21.421875 -69.578125 C 20.710938 -68.828125 20.359375 -67.773438 20.359375 -66.421875 L 20.359375 -65.34375 L 10.71875 -65.34375 C 10.5 -65.84375 10.316406 -66.414062 10.171875 -67.0625 C 9.816406 -68.269531 9.640625 -69.734375 9.640625 -71.453125 C 9.640625 -75.097656 10.726562 -78.023438 12.90625 -80.234375 C 15.082031 -82.453125 17.921875 -83.5625 21.421875 -83.5625 C 23.847656 -83.5625 25.847656 -83.21875 27.421875 -82.53125 C 28.992188 -81.851562 30.332031 -81.125 31.4375 -80.34375 C 32.550781 -79.5625 33.515625 -78.828125 34.328125 -78.140625 C 35.148438 -77.460938 36.023438 -77.125 36.953125 -77.125 C 38.023438 -77.125 38.914062 -77.5 39.625 -78.25 C 40.34375 -79 40.703125 -80.054688 40.703125 -81.421875 L 40.703125 -82.484375 L 50.34375 -82.484375 C 50.488281 -81.984375 50.671875 -81.410156 50.890625 -80.765625 C 51.023438 -80.203125 51.144531 -79.546875 51.25 -78.796875 C 51.363281 -78.046875 51.421875 -77.238281 51.421875 -76.375 C 51.421875 -72.738281 50.332031 -69.8125 48.15625 -67.59375 C 45.976562 -65.382812 43.140625 -64.28125 39.640625 -64.28125 Z M 39.640625 -64.28125 "/></g></g></g><g fill="#294d2c" fill-opacity="1"><g transform="translate(767.413902, 183.02439)"><g><path d="M 33.75 1.609375 C 29.175781 1.609375 25.066406 0.929688 21.421875 -0.421875 C 17.785156 -1.785156 14.695312 -3.75 12.15625 -6.3125 C 9.625 -8.882812 7.675781 -12.023438 6.3125 -15.734375 C 4.957031 -19.453125 4.28125 -23.671875 4.28125 -28.390625 C 4.28125 -33.097656 4.957031 -37.304688 6.3125 -41.015625 C 7.675781 -44.734375 9.625 -47.878906 12.15625 -50.453125 C 14.695312 -53.023438 17.785156 -54.988281 21.421875 -56.34375 C 25.066406 -57.707031 29.175781 -58.390625 33.75 -58.390625 C 38.3125 -58.390625 42.414062 -57.707031 46.0625 -56.34375 C 49.707031 -54.988281 52.796875 -53.023438 55.328125 -50.453125 C 57.867188 -47.878906 59.816406 -44.734375 61.171875 -41.015625 C 62.523438 -37.304688 63.203125 -33.097656 63.203125 -28.390625 C 63.203125 -23.671875 62.523438 -19.453125 61.171875 -15.734375 C 59.816406 -12.023438 57.867188 -8.882812 55.328125 -6.3125 C 52.796875 -3.75 49.707031 -1.785156 46.0625 -0.421875 C 42.414062 0.929688 38.3125 1.609375 33.75 1.609375 Z M 33.75 -14.46875 C 36.75 -14.46875 39.191406 -15.570312 41.078125 -17.78125 C 42.972656 -20 43.921875 -23.535156 43.921875 -28.390625 C 43.921875 -33.242188 42.972656 -36.773438 41.078125 -38.984375 C 39.191406 -41.203125 36.75 -42.3125 33.75 -42.3125 C 30.75 -42.3125 28.300781 -41.203125 26.40625 -38.984375 C 24.507812 -36.773438 23.5625 -33.242188 23.5625 -28.390625 C 23.5625 -23.535156 24.507812 -20 26.40625 -17.78125 C 28.300781 -15.570312 30.75 -14.46875 33.75 -14.46875 Z M 33.75 -14.46875 "/></g></g></g><g fill="#fefacb" fill-opacity="1"><g transform="translate(360.490117, 282.935272)"><g><path d="M 13.359375 -33.5625 L 1.25 -33.5625 L 1.25 -43.5 L 36.65625 -43.5 L 36.65625 -33.5625 L 24.546875 -33.5625 L 24.546875 0 L 13.359375 0 Z M 13.359375 -33.5625 "/></g></g></g><g fill="#fefacb" fill-opacity="1"><g transform="translate(394.599776, 282.935272)"><g><path d="M 5.28125 -21.4375 C 5.28125 -23.300781 4.347656 -24.234375 2.484375 -24.234375 L 1.546875 -24.234375 L 1.546875 -32.625 C 2.046875 -32.75 2.585938 -32.894531 3.171875 -33.0625 C 3.671875 -33.1875 4.226562 -33.300781 4.84375 -33.40625 C 5.46875 -33.507812 6.128906 -33.5625 6.828125 -33.5625 C 8.453125 -33.5625 9.738281 -33.269531 10.6875 -32.6875 C 11.644531 -32.101562 12.367188 -31.460938 12.859375 -30.765625 C 13.441406 -29.929688 13.816406 -29 13.984375 -27.96875 L 14.609375 -27.96875 C 15.097656 -29 15.78125 -29.929688 16.65625 -30.765625 C 17.394531 -31.460938 18.394531 -32.101562 19.65625 -32.6875 C 20.925781 -33.269531 22.554688 -33.5625 24.546875 -33.5625 L 27.03125 -33.5625 L 27.03125 -23.296875 L 22.6875 -23.296875 C 20.488281 -23.296875 18.796875 -22.613281 17.609375 -21.25 C 16.429688 -19.882812 15.84375 -17.894531 15.84375 -15.28125 L 15.84375 0 L 5.28125 0 Z M 5.28125 -21.4375 "/></g></g></g><g fill="#fefacb" fill-opacity="1"><g transform="translate(418.457619, 282.935272)"><g><path d="M 19.578125 0.9375 C 16.921875 0.9375 14.535156 0.546875 12.421875 -0.234375 C 10.316406 -1.023438 8.523438 -2.164062 7.046875 -3.65625 C 5.578125 -5.15625 4.445312 -6.976562 3.65625 -9.125 C 2.875 -11.28125 2.484375 -13.726562 2.484375 -16.46875 C 2.484375 -19.195312 2.875 -21.640625 3.65625 -23.796875 C 4.445312 -25.953125 5.578125 -27.773438 7.046875 -29.265625 C 8.523438 -30.753906 10.316406 -31.890625 12.421875 -32.671875 C 14.535156 -33.460938 16.921875 -33.859375 19.578125 -33.859375 C 22.222656 -33.859375 24.601562 -33.460938 26.71875 -32.671875 C 28.832031 -31.890625 30.625 -30.753906 32.09375 -29.265625 C 33.5625 -27.773438 34.6875 -25.953125 35.46875 -23.796875 C 36.257812 -21.640625 36.65625 -19.195312 36.65625 -16.46875 C 36.65625 -13.726562 36.257812 -11.28125 35.46875 -9.125 C 34.6875 -6.976562 33.5625 -5.15625 32.09375 -3.65625 C 30.625 -2.164062 28.832031 -1.023438 26.71875 -0.234375 C 24.601562 0.546875 22.222656 0.9375 19.578125 0.9375 Z M 19.578125 -8.390625 C 21.316406 -8.390625 22.734375 -9.03125 23.828125 -10.3125 C 24.929688 -11.59375 25.484375 -13.644531 25.484375 -16.46875 C 25.484375 -19.28125 24.929688 -21.328125 23.828125 -22.609375 C 22.734375 -23.898438 21.316406 -24.546875 19.578125 -24.546875 C 17.835938 -24.546875 16.414062 -23.898438 15.3125 -22.609375 C 14.21875 -21.328125 13.671875 -19.28125 13.671875 -16.46875 C 13.671875 -13.644531 14.21875 -11.59375 15.3125 -10.3125 C 16.414062 -9.03125 17.835938 -8.390625 19.578125 -8.390625 Z M 19.578125 -8.390625 "/></g></g></g><g fill="#fefacb" fill-opacity="1"><g transform="translate(453.809927, 282.935272)"><g><path d="M 19.390625 0.9375 C 16.773438 0.9375 14.429688 0.546875 12.359375 -0.234375 C 10.296875 -1.023438 8.523438 -2.164062 7.046875 -3.65625 C 5.578125 -5.15625 4.445312 -6.976562 3.65625 -9.125 C 2.875 -11.28125 2.484375 -13.726562 2.484375 -16.46875 C 2.484375 -19.195312 2.875 -21.640625 3.65625 -23.796875 C 4.445312 -25.953125 5.578125 -27.773438 7.046875 -29.265625 C 8.523438 -30.753906 10.316406 -31.890625 12.421875 -32.671875 C 14.535156 -33.460938 16.921875 -33.859375 19.578125 -33.859375 C 21.816406 -33.859375 23.828125 -33.546875 25.609375 -32.921875 C 27.390625 -32.304688 28.890625 -31.46875 30.109375 -30.40625 C 31.328125 -29.351562 32.253906 -28.101562 32.890625 -26.65625 C 33.535156 -25.207031 33.859375 -23.675781 33.859375 -22.0625 C 33.859375 -21.476562 33.828125 -20.96875 33.765625 -20.53125 C 33.710938 -20.101562 33.644531 -19.722656 33.5625 -19.390625 C 33.4375 -18.972656 33.332031 -18.617188 33.25 -18.328125 L 22.984375 -18.328125 C 23.023438 -18.535156 23.066406 -18.742188 23.109375 -18.953125 C 23.148438 -19.160156 23.191406 -19.390625 23.234375 -19.640625 C 23.273438 -19.890625 23.296875 -20.175781 23.296875 -20.5 C 23.296875 -21.75 22.929688 -22.734375 22.203125 -23.453125 C 21.484375 -24.179688 20.503906 -24.546875 19.265625 -24.546875 C 17.523438 -24.546875 16.15625 -23.953125 15.15625 -22.765625 C 14.164062 -21.585938 13.671875 -19.59375 13.671875 -16.78125 C 13.671875 -13.789062 14.257812 -11.644531 15.4375 -10.34375 C 16.625 -9.039062 18.3125 -8.390625 20.5 -8.390625 C 21.832031 -8.390625 22.972656 -8.554688 23.921875 -8.890625 C 24.878906 -9.222656 25.6875 -9.613281 26.34375 -10.0625 C 27.09375 -10.5625 27.738281 -11.144531 28.28125 -11.8125 L 33.5625 -4.65625 C 32.644531 -3.582031 31.503906 -2.648438 30.140625 -1.859375 C 28.972656 -1.160156 27.507812 -0.519531 25.75 0.0625 C 23.988281 0.644531 21.867188 0.9375 19.390625 0.9375 Z M 19.390625 0.9375 "/></g></g></g><g fill="#fefacb" fill-opacity="1"><g transform="translate(485.744964, 282.935272)"><g><path d="M 12.421875 0.9375 C 10.847656 0.9375 9.421875 0.675781 8.140625 0.15625 C 6.859375 -0.363281 5.75 -1.066406 4.8125 -1.953125 C 3.882812 -2.847656 3.160156 -3.894531 2.640625 -5.09375 C 2.117188 -6.289062 1.859375 -7.597656 1.859375 -9.015625 C 1.859375 -10.503906 2.140625 -11.890625 2.703125 -13.171875 C 3.265625 -14.453125 4.082031 -15.566406 5.15625 -16.515625 C 6.226562 -17.472656 7.53125 -18.222656 9.0625 -18.765625 C 10.601562 -19.304688 12.347656 -19.578125 14.296875 -19.578125 L 21.125 -19.578125 L 21.125 -20.5 C 21.125 -21.914062 20.769531 -22.992188 20.0625 -23.734375 C 19.363281 -24.484375 18.476562 -24.859375 17.40625 -24.859375 C 16.15625 -24.859375 15.21875 -24.578125 14.59375 -24.015625 C 13.976562 -23.453125 13.671875 -22.695312 13.671875 -21.75 L 13.671875 -21.125 L 4.34375 -21.125 C 4.21875 -21.375 4.117188 -21.644531 4.046875 -21.9375 C 3.835938 -22.476562 3.734375 -23.140625 3.734375 -23.921875 C 3.734375 -25.160156 4.03125 -26.367188 4.625 -27.546875 C 5.226562 -28.734375 6.117188 -29.789062 7.296875 -30.71875 C 8.484375 -31.65625 9.914062 -32.410156 11.59375 -32.984375 C 13.269531 -33.566406 15.207031 -33.859375 17.40625 -33.859375 C 19.550781 -33.859375 21.503906 -33.523438 23.265625 -32.859375 C 25.023438 -32.203125 26.523438 -31.289062 27.765625 -30.125 C 29.015625 -28.96875 29.976562 -27.59375 30.65625 -26 C 31.34375 -24.40625 31.6875 -22.675781 31.6875 -20.8125 L 31.6875 -11.1875 C 31.6875 -9.320312 32.617188 -8.390625 34.484375 -8.390625 L 35.421875 -8.390625 L 35.421875 0 C 34.921875 0.164062 34.378906 0.332031 33.796875 0.5 C 33.304688 0.625 32.75 0.726562 32.125 0.8125 C 31.5 0.894531 30.835938 0.9375 30.140625 0.9375 C 28.484375 0.9375 27.1875 0.644531 26.25 0.0625 C 25.320312 -0.519531 24.609375 -1.160156 24.109375 -1.859375 C 23.523438 -2.648438 23.148438 -3.582031 22.984375 -4.65625 L 22.375 -4.65625 C 21.832031 -3.582031 21.109375 -2.648438 20.203125 -1.859375 C 19.410156 -1.160156 18.378906 -0.519531 17.109375 0.0625 C 15.847656 0.644531 14.285156 0.9375 12.421875 0.9375 Z M 15.53125 -7.765625 C 16.9375 -7.765625 18.132812 -8.21875 19.125 -9.125 C 20.125 -10.039062 20.789062 -11.039062 21.125 -12.125 L 15.53125 -12.125 C 14.457031 -12.125 13.671875 -11.914062 13.171875 -11.5 C 12.671875 -11.082031 12.421875 -10.5625 12.421875 -9.9375 C 12.421875 -9.320312 12.671875 -8.804688 13.171875 -8.390625 C 13.671875 -7.972656 14.457031 -7.765625 15.53125 -7.765625 Z M 15.53125 -7.765625 "/></g></g></g><g fill="#fefacb" fill-opacity="1"><g transform="translate(518.922641, 282.935272)"><g/></g></g><g fill="#fefacb" fill-opacity="1"><g transform="translate(530.043366, 282.935272)"><g><path d="M 15.53125 0.9375 C 13.664062 0.9375 11.9375 0.582031 10.34375 -0.125 C 8.75 -0.832031 7.367188 -1.890625 6.203125 -3.296875 C 5.046875 -4.703125 4.132812 -6.484375 3.46875 -8.640625 C 2.8125 -10.796875 2.484375 -13.300781 2.484375 -16.15625 C 2.484375 -19.007812 2.863281 -21.546875 3.625 -23.765625 C 4.394531 -25.984375 5.460938 -27.835938 6.828125 -29.328125 C 8.203125 -30.816406 9.8125 -31.941406 11.65625 -32.703125 C 13.5 -33.472656 15.515625 -33.859375 17.703125 -33.859375 C 18.660156 -33.859375 19.53125 -33.796875 20.3125 -33.671875 C 21.101562 -33.554688 21.789062 -33.414062 22.375 -33.25 C 23.070312 -33.082031 23.691406 -32.875 24.234375 -32.625 L 24.234375 -47.234375 L 34.796875 -47.234375 L 34.796875 -11.1875 C 34.796875 -9.320312 35.726562 -8.390625 37.59375 -8.390625 L 38.53125 -8.390625 L 38.53125 0 C 38.03125 0.164062 37.488281 0.332031 36.90625 0.5 C 36.414062 0.625 35.859375 0.726562 35.234375 0.8125 C 34.609375 0.894531 33.945312 0.9375 33.25 0.9375 C 31.507812 0.9375 30.160156 0.644531 29.203125 0.0625 C 28.253906 -0.519531 27.550781 -1.160156 27.09375 -1.859375 C 26.550781 -2.648438 26.21875 -3.582031 26.09375 -4.65625 L 25.484375 -4.65625 C 24.941406 -3.582031 24.210938 -2.648438 23.296875 -1.859375 C 22.515625 -1.160156 21.488281 -0.519531 20.21875 0.0625 C 18.957031 0.644531 17.394531 0.9375 15.53125 0.9375 Z M 18.640625 -8.390625 C 20.210938 -8.390625 21.535156 -9.019531 22.609375 -10.28125 C 23.691406 -11.539062 24.234375 -13.5 24.234375 -16.15625 L 24.234375 -23.296875 C 23.773438 -23.546875 23.300781 -23.753906 22.8125 -23.921875 C 22.351562 -24.085938 21.851562 -24.234375 21.3125 -24.359375 C 20.769531 -24.484375 20.191406 -24.546875 19.578125 -24.546875 C 17.835938 -24.546875 16.414062 -23.898438 15.3125 -22.609375 C 14.21875 -21.328125 13.671875 -19.28125 13.671875 -16.46875 C 13.671875 -15.0625 13.816406 -13.847656 14.109375 -12.828125 C 14.398438 -11.816406 14.769531 -10.976562 15.21875 -10.3125 C 15.675781 -9.65625 16.203125 -9.171875 16.796875 -8.859375 C 17.398438 -8.546875 18.015625 -8.390625 18.640625 -8.390625 Z M 18.640625 -8.390625 "/></g></g></g><g fill="#fefacb" fill-opacity="1"><g transform="translate(566.327666, 282.935272)"><g><path d="M 19.390625 0.9375 C 16.773438 0.9375 14.429688 0.546875 12.359375 -0.234375 C 10.296875 -1.023438 8.523438 -2.164062 7.046875 -3.65625 C 5.578125 -5.15625 4.445312 -6.976562 3.65625 -9.125 C 2.875 -11.28125 2.484375 -13.726562 2.484375 -16.46875 C 2.484375 -19.195312 2.875 -21.640625 3.65625 -23.796875 C 4.445312 -25.953125 5.578125 -27.773438 7.046875 -29.265625 C 8.523438 -30.753906 10.316406 -31.890625 12.421875 -32.671875 C 14.535156 -33.460938 16.921875 -33.859375 19.578125 -33.859375 C 21.890625 -33.859375 23.96875 -33.523438 25.8125 -32.859375 C 27.65625 -32.203125 29.21875 -31.285156 30.5 -30.109375 C 31.789062 -28.929688 32.773438 -27.519531 33.453125 -25.875 C 34.140625 -24.238281 34.484375 -22.445312 34.484375 -20.5 C 34.484375 -19.46875 34.378906 -18.515625 34.171875 -17.640625 C 33.960938 -16.773438 33.757812 -15.988281 33.5625 -15.28125 C 33.269531 -14.5 32.957031 -13.753906 32.625 -13.046875 L 13.984375 -13.046875 C 14.148438 -11.640625 14.820312 -10.40625 16 -9.34375 C 17.175781 -8.289062 18.78125 -7.765625 20.8125 -7.765625 C 22.144531 -7.765625 23.328125 -7.929688 24.359375 -8.265625 C 25.390625 -8.597656 26.257812 -8.992188 26.96875 -9.453125 C 27.800781 -9.941406 28.546875 -10.519531 29.203125 -11.1875 L 33.5625 -4.046875 C 32.5625 -3.128906 31.378906 -2.296875 30.015625 -1.546875 C 28.816406 -0.929688 27.335938 -0.363281 25.578125 0.15625 C 23.816406 0.675781 21.753906 0.9375 19.390625 0.9375 Z M 21.75 -19.890625 C 23.195312 -19.890625 23.921875 -20.507812 23.921875 -21.75 C 23.921875 -22.695312 23.546875 -23.503906 22.796875 -24.171875 C 22.054688 -24.835938 20.984375 -25.171875 19.578125 -25.171875 C 18.171875 -25.171875 16.96875 -24.679688 15.96875 -23.703125 C 14.976562 -22.734375 14.316406 -21.460938 13.984375 -19.890625 Z M 21.75 -19.890625 "/></g></g></g><g fill="#fefacb" fill-opacity="1"><g transform="translate(599.505343, 282.935272)"><g/></g></g><g fill="#fefacb" fill-opacity="1"><g transform="translate(610.626056, 282.935272)"><g><path d="M 4.34375 -43.5 L 20.8125 -43.5 C 24.164062 -43.5 27.035156 -43.15625 29.421875 -42.46875 C 31.804688 -41.789062 33.765625 -40.796875 35.296875 -39.484375 C 36.828125 -38.179688 37.953125 -36.585938 38.671875 -34.703125 C 39.398438 -32.816406 39.765625 -30.675781 39.765625 -28.28125 C 39.765625 -25.875 39.398438 -23.726562 38.671875 -21.84375 C 37.953125 -19.957031 36.828125 -18.359375 35.296875 -17.046875 C 33.765625 -15.742188 31.804688 -14.75 29.421875 -14.0625 C 27.035156 -13.382812 24.164062 -13.046875 20.8125 -13.046875 L 15.53125 -13.046875 L 15.53125 0 L 4.34375 0 Z M 21.125 -22.984375 C 23.488281 -22.984375 25.21875 -23.46875 26.3125 -24.4375 C 27.414062 -25.414062 27.96875 -26.695312 27.96875 -28.28125 C 27.96875 -29.851562 27.414062 -31.125 26.3125 -32.09375 C 25.21875 -33.070312 23.488281 -33.5625 21.125 -33.5625 L 15.53125 -33.5625 L 15.53125 -22.984375 Z M 21.125 -22.984375 "/></g></g></g><g fill="#fefacb" fill-opacity="1"><g transform="translate(648.774315, 282.935272)"><g><path d="M 19.578125 0.9375 C 16.921875 0.9375 14.535156 0.546875 12.421875 -0.234375 C 10.316406 -1.023438 8.523438 -2.164062 7.046875 -3.65625 C 5.578125 -5.15625 4.445312 -6.976562 3.65625 -9.125 C 2.875 -11.28125 2.484375 -13.726562 2.484375 -16.46875 C 2.484375 -19.195312 2.875 -21.640625 3.65625 -23.796875 C 4.445312 -25.953125 5.578125 -27.773438 7.046875 -29.265625 C 8.523438 -30.753906 10.316406 -31.890625 12.421875 -32.671875 C 14.535156 -33.460938 16.921875 -33.859375 19.578125 -33.859375 C 22.222656 -33.859375 24.601562 -33.460938 26.71875 -32.671875 C 28.832031 -31.890625 30.625 -30.753906 32.09375 -29.265625 C 33.5625 -27.773438 34.6875 -25.953125 35.46875 -23.796875 C 36.257812 -21.640625 36.65625 -19.195312 36.65625 -16.46875 C 36.65625 -13.726562 36.257812 -11.28125 35.46875 -9.125 C 34.6875 -6.976562 33.5625 -5.15625 32.09375 -3.65625 C 30.625 -2.164062 28.832031 -1.023438 26.71875 -0.234375 C 24.601562 0.546875 22.222656 0.9375 19.578125 0.9375 Z M 19.578125 -8.390625 C 21.316406 -8.390625 22.734375 -9.03125 23.828125 -10.3125 C 24.929688 -11.59375 25.484375 -13.644531 25.484375 -16.46875 C 25.484375 -19.28125 24.929688 -21.328125 23.828125 -22.609375 C 22.734375 -23.898438 21.316406 -24.546875 19.578125 -24.546875 C 17.835938 -24.546875 16.414062 -23.898438 15.3125 -22.609375 C 14.21875 -21.328125 13.671875 -19.28125 13.671875 -16.46875 C 13.671875 -13.644531 14.21875 -11.59375 15.3125 -10.3125 C 16.414062 -9.03125 17.835938 -8.390625 19.578125 -8.390625 Z M 19.578125 -8.390625 "/></g></g></g><g fill="#fefacb" fill-opacity="1"><g transform="translate(684.126628, 282.935272)"><g><path d="M 5.28125 -21.75 C 5.28125 -23.613281 4.347656 -24.546875 2.484375 -24.546875 L 1.546875 -24.546875 L 1.546875 -32.9375 C 2.046875 -33.0625 2.585938 -33.207031 3.171875 -33.375 C 3.671875 -33.5 4.226562 -33.609375 4.84375 -33.703125 C 5.46875 -33.804688 6.128906 -33.859375 6.828125 -33.859375 C 8.453125 -33.859375 9.738281 -33.566406 10.6875 -32.984375 C 11.644531 -32.410156 12.367188 -31.773438 12.859375 -31.078125 C 13.441406 -30.242188 13.816406 -29.3125 13.984375 -28.28125 L 14.609375 -28.28125 C 15.097656 -29.3125 15.78125 -30.242188 16.65625 -31.078125 C 17.394531 -31.773438 18.394531 -32.410156 19.65625 -32.984375 C 20.925781 -33.566406 22.554688 -33.859375 24.546875 -33.859375 C 26.242188 -33.859375 27.796875 -33.578125 29.203125 -33.015625 C 30.609375 -32.460938 31.816406 -31.644531 32.828125 -30.5625 C 33.847656 -29.488281 34.640625 -28.1875 35.203125 -26.65625 C 35.765625 -25.125 36.046875 -23.382812 36.046875 -21.4375 L 36.046875 0 L 25.484375 0 L 25.484375 -20.5 C 25.484375 -21.75 25.117188 -22.734375 24.390625 -23.453125 C 23.660156 -24.179688 22.675781 -24.546875 21.4375 -24.546875 C 19.863281 -24.546875 18.535156 -23.910156 17.453125 -22.640625 C 16.378906 -21.378906 15.84375 -19.425781 15.84375 -16.78125 L 15.84375 0 L 5.28125 0 Z M 5.28125 -21.75 "/></g></g></g><g fill="#fefacb" fill-opacity="1"><g transform="translate(720.721582, 282.935272)"><g><path d="M 18.015625 0.9375 C 16.316406 0.9375 14.722656 0.613281 13.234375 -0.03125 C 11.742188 -0.675781 10.457031 -1.578125 9.375 -2.734375 C 8.300781 -3.890625 7.453125 -5.285156 6.828125 -6.921875 C 6.210938 -8.566406 5.90625 -10.398438 5.90625 -12.421875 L 5.90625 -23.609375 L 1.25 -23.609375 L 1.25 -32.9375 L 6.21875 -32.9375 L 7.453125 -41.015625 L 16.46875 -41.015625 L 16.46875 -32.9375 L 24.234375 -32.9375 L 24.234375 -23.609375 L 16.46875 -23.609375 L 16.46875 -13.046875 C 16.46875 -11.472656 16.828125 -10.300781 17.546875 -9.53125 C 18.273438 -8.769531 19.257812 -8.390625 20.5 -8.390625 C 21.125 -8.390625 21.703125 -8.429688 22.234375 -8.515625 C 22.773438 -8.597656 23.273438 -8.703125 23.734375 -8.828125 C 24.234375 -8.992188 24.710938 -9.160156 25.171875 -9.328125 L 26.40625 -0.625 C 25.707031 -0.289062 24.921875 -0.0195312 24.046875 0.1875 C 23.304688 0.394531 22.425781 0.570312 21.40625 0.71875 C 20.394531 0.863281 19.265625 0.9375 18.015625 0.9375 Z M 18.015625 0.9375 "/></g></g></g><g fill="#fefacb" fill-opacity="1"><g transform="translate(745.511401, 282.935272)"><g><path d="M 19.578125 0.9375 C 16.921875 0.9375 14.535156 0.546875 12.421875 -0.234375 C 10.316406 -1.023438 8.523438 -2.164062 7.046875 -3.65625 C 5.578125 -5.15625 4.445312 -6.976562 3.65625 -9.125 C 2.875 -11.28125 2.484375 -13.726562 2.484375 -16.46875 C 2.484375 -19.195312 2.875 -21.640625 3.65625 -23.796875 C 4.445312 -25.953125 5.578125 -27.773438 7.046875 -29.265625 C 8.523438 -30.753906 10.316406 -31.890625 12.421875 -32.671875 C 14.535156 -33.460938 16.921875 -33.859375 19.578125 -33.859375 C 22.222656 -33.859375 24.601562 -33.460938 26.71875 -32.671875 C 28.832031 -31.890625 30.625 -30.753906 32.09375 -29.265625 C 33.5625 -27.773438 34.6875 -25.953125 35.46875 -23.796875 C 36.257812 -21.640625 36.65625 -19.195312 36.65625 -16.46875 C 36.65625 -13.726562 36.257812 -11.28125 35.46875 -9.125 C 34.6875 -6.976562 33.5625 -5.15625 32.09375 -3.65625 C 30.625 -2.164062 28.832031 -1.023438 26.71875 -0.234375 C 24.601562 0.546875 22.222656 0.9375 19.578125 0.9375 Z M 19.578125 -8.390625 C 21.316406 -8.390625 22.734375 -9.03125 23.828125 -10.3125 C 24.929688 -11.59375 25.484375 -13.644531 25.484375 -16.46875 C 25.484375 -19.28125 24.929688 -21.328125 23.828125 -22.609375 C 22.734375 -23.898438 21.316406 -24.546875 19.578125 -24.546875 C 17.835938 -24.546875 16.414062 -23.898438 15.3125 -22.609375 C 14.21875 -21.328125 13.671875 -19.28125 13.671875 -16.46875 C 13.671875 -13.644531 14.21875 -11.59375 15.3125 -10.3125 C 16.414062 -9.03125 17.835938 -8.390625 19.578125 -8.390625 Z M 19.578125 -8.390625 "/></g></g></g><g fill="#fefacb" fill-opacity="1"><g transform="translate(780.863714, 282.935272)"><g><path d="M 15.84375 0.9375 C 13.238281 0.9375 11.003906 0.644531 9.140625 0.0625 C 7.273438 -0.519531 5.738281 -1.160156 4.53125 -1.859375 C 3.125 -2.648438 1.925781 -3.582031 0.9375 -4.65625 L 5.90625 -11.1875 C 6.476562 -10.601562 7.179688 -10.082031 8.015625 -9.625 C 8.722656 -9.21875 9.59375 -8.859375 10.625 -8.546875 C 11.65625 -8.234375 12.878906 -8.078125 14.296875 -8.078125 C 15.867188 -8.078125 16.929688 -8.273438 17.484375 -8.671875 C 18.046875 -9.066406 18.328125 -9.488281 18.328125 -9.9375 C 18.328125 -10.5625 17.921875 -11.0625 17.109375 -11.4375 C 16.304688 -11.8125 15.3125 -12.171875 14.125 -12.515625 C 12.945312 -12.867188 11.65625 -13.265625 10.25 -13.703125 C 8.84375 -14.140625 7.546875 -14.75 6.359375 -15.53125 C 5.179688 -16.320312 4.1875 -17.335938 3.375 -18.578125 C 2.570312 -19.816406 2.171875 -21.390625 2.171875 -23.296875 C 2.171875 -24.710938 2.484375 -26.050781 3.109375 -27.3125 C 3.734375 -28.570312 4.632812 -29.6875 5.8125 -30.65625 C 6.988281 -31.632812 8.445312 -32.410156 10.1875 -32.984375 C 11.925781 -33.566406 13.914062 -33.859375 16.15625 -33.859375 C 18.476562 -33.859375 20.5 -33.597656 22.21875 -33.078125 C 23.9375 -32.566406 25.351562 -31.875 26.46875 -31 C 27.59375 -30.132812 28.429688 -29.117188 28.984375 -27.953125 C 29.546875 -26.796875 29.828125 -25.554688 29.828125 -24.234375 C 29.828125 -23.859375 29.796875 -23.515625 29.734375 -23.203125 C 29.671875 -22.898438 29.597656 -22.644531 29.515625 -22.4375 C 29.390625 -22.1875 29.285156 -21.957031 29.203125 -21.75 L 19.265625 -21.75 L 19.265625 -22.375 C 19.265625 -22.988281 18.984375 -23.554688 18.421875 -24.078125 C 17.859375 -24.597656 17.101562 -24.859375 16.15625 -24.859375 C 15.363281 -24.859375 14.75 -24.660156 14.3125 -24.265625 C 13.882812 -23.867188 13.671875 -23.441406 13.671875 -22.984375 C 13.671875 -22.367188 14.070312 -21.875 14.875 -21.5 C 15.6875 -21.125 16.679688 -20.757812 17.859375 -20.40625 C 19.046875 -20.0625 20.34375 -19.671875 21.75 -19.234375 C 23.15625 -18.796875 24.445312 -18.179688 25.625 -17.390625 C 26.8125 -16.609375 27.804688 -15.59375 28.609375 -14.34375 C 29.421875 -13.101562 29.828125 -11.53125 29.828125 -9.625 C 29.828125 -8.132812 29.535156 -6.75 28.953125 -5.46875 C 28.378906 -4.1875 27.507812 -3.066406 26.34375 -2.109375 C 25.1875 -1.160156 23.726562 -0.414062 21.96875 0.125 C 20.207031 0.664062 18.164062 0.9375 15.84375 0.9375 Z M 15.84375 0.9375 "/></g></g></g><g fill="#294d2c" fill-opacity="1"><g transform="translate(384.560112, 616.203338)"><g><path d="M 3.75 -43.765625 L 37.203125 -43.765625 L 37.203125 -30.640625 L 19.390625 -30.640625 L 19.390625 -26.890625 L 34.703125 -26.890625 L 34.703125 -14.375 L 19.390625 -14.375 L 19.390625 0 L 3.75 0 Z M 3.75 -43.765625 "/></g></g></g><g fill="#294d2c" fill-opacity="1"><g transform="translate(423.632217, 616.203338)"><g><path d="M 4.375 -18.765625 C 4.375 -19.722656 4.195312 -20.378906 3.84375 -20.734375 C 3.488281 -21.085938 2.832031 -21.265625 1.875 -21.265625 L 1.25 -21.265625 L 1.25 -33.140625 C 1.832031 -33.265625 2.5 -33.410156 3.25 -33.578125 C 3.875 -33.703125 4.601562 -33.816406 5.4375 -33.921875 C 6.269531 -34.023438 7.164062 -34.078125 8.125 -34.078125 C 9.875 -34.078125 11.269531 -33.796875 12.3125 -33.234375 C 13.351562 -32.671875 14.164062 -32.054688 14.75 -31.390625 C 15.46875 -30.640625 15.972656 -29.765625 16.265625 -28.765625 L 16.890625 -28.765625 C 17.390625 -29.765625 18.078125 -30.640625 18.953125 -31.390625 C 19.703125 -32.054688 20.710938 -32.671875 21.984375 -33.234375 C 23.253906 -33.796875 24.890625 -34.078125 26.890625 -34.078125 L 29.390625 -34.078125 L 29.390625 -20.015625 L 25.015625 -20.015625 C 21.265625 -20.015625 19.390625 -18.15625 19.390625 -14.4375 L 19.390625 0 L 4.375 0 Z M 4.375 -18.765625 "/></g></g></g><g fill="#294d2c" fill-opacity="1"><g transform="translate(453.639599, 616.203338)"><g><path d="M 20.640625 0.9375 C 14.503906 0.9375 9.84375 -0.601562 6.65625 -3.6875 C 3.46875 -6.769531 1.875 -11.066406 1.875 -16.578125 C 1.875 -22.078125 3.46875 -26.367188 6.65625 -29.453125 C 9.84375 -32.535156 14.503906 -34.078125 20.640625 -34.078125 C 23.390625 -34.078125 25.804688 -33.722656 27.890625 -33.015625 C 29.972656 -32.304688 31.734375 -31.328125 33.171875 -30.078125 C 34.609375 -28.828125 35.691406 -27.347656 36.421875 -25.640625 C 37.148438 -23.929688 37.515625 -22.054688 37.515625 -20.015625 C 37.515625 -19.054688 37.410156 -18.160156 37.203125 -17.328125 C 36.992188 -16.492188 36.785156 -15.757812 36.578125 -15.125 C 36.285156 -14.375 35.972656 -13.707031 35.640625 -13.125 L 18.140625 -13.125 C 18.390625 -12.664062 18.742188 -12.25 19.203125 -11.875 C 19.578125 -11.539062 20.085938 -11.25 20.734375 -11 C 21.378906 -10.75 22.179688 -10.625 23.140625 -10.625 C 24.222656 -10.625 25.242188 -10.695312 26.203125 -10.84375 C 27.160156 -10.988281 27.992188 -11.164062 28.703125 -11.375 C 29.492188 -11.582031 30.242188 -11.851562 30.953125 -12.1875 L 36.265625 -2.5 C 35.097656 -1.832031 33.742188 -1.25 32.203125 -0.75 C 30.867188 -0.289062 29.234375 0.101562 27.296875 0.4375 C 25.359375 0.769531 23.140625 0.9375 20.640625 0.9375 Z M 20.953125 -20.015625 C 21.992188 -20.015625 22.515625 -20.535156 22.515625 -21.578125 C 22.515625 -22.203125 22.304688 -22.722656 21.890625 -23.140625 C 21.472656 -23.554688 20.953125 -23.765625 20.328125 -23.765625 C 19.703125 -23.765625 19.078125 -23.410156 18.453125 -22.703125 C 17.828125 -21.992188 17.515625 -21.097656 17.515625 -20.015625 Z M 20.953125 -20.015625 "/></g></g></g><g fill="#294d2c" fill-opacity="1"><g transform="translate(493.02426, 616.203338)"><g><path d="M 19.390625 0.9375 C 17.179688 0.9375 15.1875 0.601562 13.40625 -0.0625 C 11.632812 -0.726562 10.125 -1.6875 8.875 -2.9375 C 7.625 -4.1875 6.664062 -5.695312 6 -7.46875 C 5.332031 -9.238281 5 -11.226562 5 -13.4375 L 5 -20.015625 L 1.25 -20.015625 L 1.25 -33.140625 L 5.625 -33.140625 L 6.875 -41.265625 L 20.015625 -41.265625 L 20.015625 -33.140625 L 26.890625 -33.140625 L 26.890625 -20.015625 L 20.015625 -20.015625 L 20.015625 -15 C 20.015625 -14.039062 20.296875 -13.28125 20.859375 -12.71875 C 21.421875 -12.15625 22.179688 -11.875 23.140625 -11.875 C 24.054688 -11.875 24.910156 -12.019531 25.703125 -12.3125 C 26.117188 -12.476562 26.515625 -12.644531 26.890625 -12.8125 L 28.765625 -0.625 C 28.015625 -0.289062 27.160156 -0.0195312 26.203125 0.1875 C 25.367188 0.394531 24.378906 0.570312 23.234375 0.71875 C 22.085938 0.863281 20.804688 0.9375 19.390625 0.9375 Z M 19.390625 0.9375 "/></g></g></g><g fill="#294d2c" fill-opacity="1"><g transform="translate(524.281945, 616.203338)"><g><path d="M 20.640625 0.9375 C 14.503906 0.9375 9.84375 -0.601562 6.65625 -3.6875 C 3.46875 -6.769531 1.875 -11.066406 1.875 -16.578125 C 1.875 -22.078125 3.46875 -26.367188 6.65625 -29.453125 C 9.84375 -32.535156 14.503906 -34.078125 20.640625 -34.078125 C 23.390625 -34.078125 25.804688 -33.722656 27.890625 -33.015625 C 29.972656 -32.304688 31.734375 -31.328125 33.171875 -30.078125 C 34.609375 -28.828125 35.691406 -27.347656 36.421875 -25.640625 C 37.148438 -23.929688 37.515625 -22.054688 37.515625 -20.015625 C 37.515625 -19.054688 37.410156 -18.160156 37.203125 -17.328125 C 36.992188 -16.492188 36.785156 -15.757812 36.578125 -15.125 C 36.285156 -14.375 35.972656 -13.707031 35.640625 -13.125 L 18.140625 -13.125 C 18.390625 -12.664062 18.742188 -12.25 19.203125 -11.875 C 19.578125 -11.539062 20.085938 -11.25 20.734375 -11 C 21.378906 -10.75 22.179688 -10.625 23.140625 -10.625 C 24.222656 -10.625 25.242188 -10.695312 26.203125 -10.84375 C 27.160156 -10.988281 27.992188 -11.164062 28.703125 -11.375 C 29.492188 -11.582031 30.242188 -11.851562 30.953125 -12.1875 L 36.265625 -2.5 C 35.097656 -1.832031 33.742188 -1.25 32.203125 -0.75 C 30.867188 -0.289062 29.234375 0.101562 27.296875 0.4375 C 25.359375 0.769531 23.140625 0.9375 20.640625 0.9375 Z M 20.953125 -20.015625 C 21.992188 -20.015625 22.515625 -20.535156 22.515625 -21.578125 C 22.515625 -22.203125 22.304688 -22.722656 21.890625 -23.140625 C 21.472656 -23.554688 20.953125 -23.765625 20.328125 -23.765625 C 19.703125 -23.765625 19.078125 -23.410156 18.453125 -22.703125 C 17.828125 -21.992188 17.515625 -21.097656 17.515625 -20.015625 Z M 20.953125 -20.015625 "/></g></g></g><g fill="#294d2c" fill-opacity="1"><g transform="translate(563.666606, 616.203338)"><g/></g></g><g fill="#294d2c" fill-opacity="1"><g transform="translate(579.295448, 616.203338)"><g><path d="M 25.953125 0.9375 C 22.203125 0.9375 18.863281 0.425781 15.9375 -0.59375 C 13.019531 -1.613281 10.570312 -3.101562 8.59375 -5.0625 C 6.613281 -7.019531 5.101562 -9.414062 4.0625 -12.25 C 3.019531 -15.09375 2.5 -18.304688 2.5 -21.890625 C 2.5 -25.472656 3.019531 -28.679688 4.0625 -31.515625 C 5.101562 -34.347656 6.613281 -36.742188 8.59375 -38.703125 C 10.570312 -40.660156 13.019531 -42.148438 15.9375 -43.171875 C 18.863281 -44.191406 22.203125 -44.703125 25.953125 -44.703125 C 29.242188 -44.703125 32.085938 -44.359375 34.484375 -43.671875 C 36.878906 -42.984375 38.859375 -42.046875 40.421875 -40.859375 C 41.984375 -39.671875 43.140625 -38.273438 43.890625 -36.671875 C 44.640625 -35.066406 45.015625 -33.367188 45.015625 -31.578125 C 45.015625 -31.117188 44.960938 -30.660156 44.859375 -30.203125 C 44.753906 -29.742188 44.640625 -29.347656 44.515625 -29.015625 C 44.347656 -28.597656 44.203125 -28.203125 44.078125 -27.828125 L 29.078125 -27.828125 C 29.117188 -27.910156 29.160156 -28.035156 29.203125 -28.203125 C 29.242188 -28.328125 29.285156 -28.460938 29.328125 -28.609375 C 29.367188 -28.753906 29.390625 -28.910156 29.390625 -29.078125 C 29.390625 -29.867188 29.066406 -30.535156 28.421875 -31.078125 C 27.773438 -31.617188 26.742188 -31.890625 25.328125 -31.890625 C 23.453125 -31.890625 21.890625 -31.148438 20.640625 -29.671875 C 19.390625 -28.191406 18.765625 -25.804688 18.765625 -22.515625 C 18.765625 -18.890625 19.566406 -16.207031 21.171875 -14.46875 C 22.773438 -12.738281 24.992188 -11.875 27.828125 -11.875 C 28.910156 -11.875 29.765625 -11.976562 30.390625 -12.1875 C 30.722656 -12.269531 31.015625 -12.375 31.265625 -12.5 L 31.265625 -14.375 L 26.890625 -14.375 L 26.890625 -25.015625 L 46.265625 -25.015625 L 46.265625 -6.25 C 44.765625 -4.914062 43.015625 -3.707031 41.015625 -2.625 C 39.265625 -1.707031 37.140625 -0.882812 34.640625 -0.15625 C 32.140625 0.570312 29.242188 0.9375 25.953125 0.9375 Z M 25.953125 0.9375 "/></g></g></g><g fill="#294d2c" fill-opacity="1"><g transform="translate(628.682578, 616.203338)"><g><path d="M 4.375 -18.765625 C 4.375 -19.722656 4.195312 -20.378906 3.84375 -20.734375 C 3.488281 -21.085938 2.832031 -21.265625 1.875 -21.265625 L 1.25 -21.265625 L 1.25 -33.140625 C 1.832031 -33.265625 2.5 -33.410156 3.25 -33.578125 C 3.875 -33.703125 4.601562 -33.816406 5.4375 -33.921875 C 6.269531 -34.023438 7.164062 -34.078125 8.125 -34.078125 C 9.875 -34.078125 11.269531 -33.796875 12.3125 -33.234375 C 13.351562 -32.671875 14.164062 -32.054688 14.75 -31.390625 C 15.46875 -30.640625 15.972656 -29.765625 16.265625 -28.765625 L 16.890625 -28.765625 C 17.390625 -29.765625 18.078125 -30.640625 18.953125 -31.390625 C 19.703125 -32.054688 20.710938 -32.671875 21.984375 -33.234375 C 23.253906 -33.796875 24.890625 -34.078125 26.890625 -34.078125 L 29.390625 -34.078125 L 29.390625 -20.015625 L 25.015625 -20.015625 C 21.265625 -20.015625 19.390625 -18.15625 19.390625 -14.4375 L 19.390625 0 L 4.375 0 Z M 4.375 -18.765625 "/></g></g></g><g fill="#294d2c" fill-opacity="1"><g transform="translate(658.68996, 616.203338)"><g><path d="M 12.1875 0.9375 C 10.5625 0.9375 9.070312 0.675781 7.71875 0.15625 C 6.363281 -0.363281 5.207031 -1.070312 4.25 -1.96875 C 3.289062 -2.863281 2.550781 -3.914062 2.03125 -5.125 C 1.507812 -6.332031 1.25 -7.644531 1.25 -9.0625 C 1.25 -12.1875 2.34375 -14.738281 4.53125 -16.71875 C 6.71875 -18.707031 10 -19.703125 14.375 -19.703125 L 19.703125 -19.703125 L 19.703125 -20.953125 C 19.703125 -21.992188 19.179688 -22.515625 18.140625 -22.515625 C 17.804688 -22.515625 17.546875 -22.453125 17.359375 -22.328125 C 17.171875 -22.203125 17.015625 -22.054688 16.890625 -21.890625 C 16.722656 -21.722656 16.617188 -21.515625 16.578125 -21.265625 L 3.75 -21.265625 C 3.625 -21.515625 3.519531 -21.804688 3.4375 -22.140625 C 3.226562 -22.765625 3.125 -23.515625 3.125 -24.390625 C 3.125 -25.554688 3.4375 -26.722656 4.0625 -27.890625 C 4.6875 -29.054688 5.625 -30.097656 6.875 -31.015625 C 8.125 -31.929688 9.6875 -32.671875 11.5625 -33.234375 C 13.4375 -33.796875 15.628906 -34.078125 18.140625 -34.078125 C 20.929688 -34.078125 23.367188 -33.765625 25.453125 -33.140625 C 27.535156 -32.515625 29.265625 -31.617188 30.640625 -30.453125 C 32.015625 -29.285156 33.035156 -27.898438 33.703125 -26.296875 C 34.367188 -24.691406 34.703125 -22.910156 34.703125 -20.953125 L 34.703125 -14.375 C 34.703125 -13.414062 34.878906 -12.757812 35.234375 -12.40625 C 35.585938 -12.050781 36.242188 -11.875 37.203125 -11.875 L 37.828125 -11.875 L 37.828125 0 C 37.828125 0 37.640625 0.0507812 37.265625 0.15625 C 36.890625 0.257812 36.390625 0.375 35.765625 0.5 C 35.140625 0.625 34.410156 0.726562 33.578125 0.8125 C 32.742188 0.894531 31.867188 0.9375 30.953125 0.9375 C 29.117188 0.9375 27.679688 0.664062 26.640625 0.125 C 25.597656 -0.414062 24.785156 -1.019531 24.203125 -1.6875 C 23.535156 -2.4375 23.078125 -3.332031 22.828125 -4.375 L 22.203125 -4.375 C 21.660156 -3.332031 20.929688 -2.4375 20.015625 -1.6875 C 19.222656 -1.019531 18.1875 -0.414062 16.90625 0.125 C 15.632812 0.664062 14.0625 0.9375 12.1875 0.9375 Z M 17.203125 -9.6875 C 17.828125 -9.6875 18.398438 -9.945312 18.921875 -10.46875 C 19.441406 -10.988281 19.703125 -11.5625 19.703125 -12.1875 L 17.203125 -12.1875 C 16.742188 -12.1875 16.363281 -12.0625 16.0625 -11.8125 C 15.769531 -11.5625 15.625 -11.269531 15.625 -10.9375 C 15.625 -10.601562 15.769531 -10.3125 16.0625 -10.0625 C 16.363281 -9.8125 16.742188 -9.6875 17.203125 -9.6875 Z M 17.515625 -49.40625 L 33.765625 -49.40625 L 23.765625 -36.890625 L 14.375 -36.890625 Z M 17.515625 -49.40625 "/></g></g></g><g fill="#294d2c" fill-opacity="1"><g transform="translate(697.762065, 616.203338)"><g><path d="M 19.390625 0.9375 C 17.179688 0.9375 15.1875 0.601562 13.40625 -0.0625 C 11.632812 -0.726562 10.125 -1.6875 8.875 -2.9375 C 7.625 -4.1875 6.664062 -5.695312 6 -7.46875 C 5.332031 -9.238281 5 -11.226562 5 -13.4375 L 5 -20.015625 L 1.25 -20.015625 L 1.25 -33.140625 L 5.625 -33.140625 L 6.875 -41.265625 L 20.015625 -41.265625 L 20.015625 -33.140625 L 26.890625 -33.140625 L 26.890625 -20.015625 L 20.015625 -20.015625 L 20.015625 -15 C 20.015625 -14.039062 20.296875 -13.28125 20.859375 -12.71875 C 21.421875 -12.15625 22.179688 -11.875 23.140625 -11.875 C 24.054688 -11.875 24.910156 -12.019531 25.703125 -12.3125 C 26.117188 -12.476562 26.515625 -12.644531 26.890625 -12.8125 L 28.765625 -0.625 C 28.015625 -0.289062 27.160156 -0.0195312 26.203125 0.1875 C 25.367188 0.394531 24.378906 0.570312 23.234375 0.71875 C 22.085938 0.863281 20.804688 0.9375 19.390625 0.9375 Z M 19.390625 0.9375 "/></g></g></g><g fill="#294d2c" fill-opacity="1"><g transform="translate(729.019749, 616.203338)"><g><path d="M 4.375 -18.765625 C 4.375 -19.722656 4.195312 -20.378906 3.84375 -20.734375 C 3.488281 -21.085938 2.832031 -21.265625 1.875 -21.265625 L 1.25 -21.265625 L 1.25 -33.140625 C 1.832031 -33.265625 2.5 -33.410156 3.25 -33.578125 C 3.875 -33.703125 4.601562 -33.816406 5.4375 -33.921875 C 6.269531 -34.023438 7.164062 -34.078125 8.125 -34.078125 C 15.632812 -34.078125 19.390625 -30.328125 19.390625 -22.828125 L 19.390625 0 L 4.375 0 Z M 11.875 -36.265625 C 9.207031 -36.265625 7.1875 -36.898438 5.8125 -38.171875 C 4.4375 -39.441406 3.75 -41.097656 3.75 -43.140625 C 3.75 -45.179688 4.4375 -46.835938 5.8125 -48.109375 C 7.1875 -49.390625 9.207031 -50.03125 11.875 -50.03125 C 14.550781 -50.03125 16.578125 -49.390625 17.953125 -48.109375 C 19.328125 -46.835938 20.015625 -45.179688 20.015625 -43.140625 C 20.015625 -41.097656 19.328125 -39.441406 17.953125 -38.171875 C 16.578125 -36.898438 14.550781 -36.265625 11.875 -36.265625 Z M 11.875 -36.265625 "/></g></g></g><g fill="#294d2c" fill-opacity="1"><g transform="translate(752.15043, 616.203338)"><g><path d="M 16.890625 0.9375 C 14.046875 0.9375 11.59375 0.664062 9.53125 0.125 C 7.46875 -0.414062 5.75 -1.019531 4.375 -1.6875 C 2.75 -2.4375 1.394531 -3.332031 0.3125 -4.375 L 6.5625 -12.5 C 7.226562 -11.957031 7.976562 -11.476562 8.8125 -11.0625 C 9.519531 -10.726562 10.351562 -10.414062 11.3125 -10.125 C 12.269531 -9.832031 13.289062 -9.6875 14.375 -9.6875 C 15.34375 -9.6875 16.003906 -9.8125 16.359375 -10.0625 C 16.710938 -10.3125 16.890625 -10.601562 16.890625 -10.9375 C 16.890625 -11.226562 16.507812 -11.5 15.75 -11.75 C 15 -12 14.070312 -12.28125 12.96875 -12.59375 C 11.863281 -12.90625 10.664062 -13.289062 9.375 -13.75 C 8.082031 -14.207031 6.882812 -14.84375 5.78125 -15.65625 C 4.675781 -16.476562 3.75 -17.484375 3 -18.671875 C 2.25 -19.859375 1.875 -21.347656 1.875 -23.140625 C 1.875 -24.640625 2.1875 -26.046875 2.8125 -27.359375 C 3.4375 -28.671875 4.394531 -29.828125 5.6875 -30.828125 C 6.976562 -31.828125 8.601562 -32.617188 10.5625 -33.203125 C 12.519531 -33.785156 14.835938 -34.078125 17.515625 -34.078125 C 20.304688 -34.078125 22.691406 -33.828125 24.671875 -33.328125 C 26.648438 -32.828125 28.265625 -32.148438 29.515625 -31.296875 C 30.765625 -30.441406 31.679688 -29.472656 32.265625 -28.390625 C 32.847656 -27.304688 33.140625 -26.179688 33.140625 -25.015625 C 33.140625 -24.554688 33.109375 -24.140625 33.046875 -23.765625 C 32.984375 -23.390625 32.910156 -23.054688 32.828125 -22.765625 C 32.703125 -22.429688 32.597656 -22.140625 32.515625 -21.890625 L 20.640625 -21.890625 C 20.640625 -22.515625 20.515625 -22.984375 20.265625 -23.296875 C 20.015625 -23.609375 19.722656 -23.765625 19.390625 -23.765625 C 19.054688 -23.765625 18.765625 -23.660156 18.515625 -23.453125 C 18.265625 -23.242188 18.140625 -22.929688 18.140625 -22.515625 C 18.140625 -22.179688 18.515625 -21.898438 19.265625 -21.671875 C 20.015625 -21.441406 20.941406 -21.171875 22.046875 -20.859375 C 23.148438 -20.546875 24.347656 -20.160156 25.640625 -19.703125 C 26.929688 -19.242188 28.128906 -18.609375 29.234375 -17.796875 C 30.335938 -16.984375 31.265625 -15.96875 32.015625 -14.75 C 32.765625 -13.539062 33.140625 -12.0625 33.140625 -10.3125 C 33.140625 -8.726562 32.816406 -7.257812 32.171875 -5.90625 C 31.523438 -4.550781 30.546875 -3.363281 29.234375 -2.34375 C 27.921875 -1.320312 26.234375 -0.519531 24.171875 0.0625 C 22.109375 0.644531 19.679688 0.9375 16.890625 0.9375 Z M 16.890625 0.9375 "/></g></g></g></svg>